PathFileType	4	(X/Y/Z)	6_coords_data.trc
DataRate	CameraRate	NumFrames	NumMarkers	Units	OrigDataRate	OrigDataStartFrame	OrigNumFrames
30.0	30.0	8	21	m	30.0	61	71
Frame#	Time	THUMB_TIP	THUMB_IP	THUMB_MCP	THUMB_CMC	INDEX_TIP	INDEX_DIP	INDEX_PIP	INDEX_MCP	MIDDLE_TIP	MIDDLE_DIP	MIDDLE_PIP	MIDDLE_MCP	RING_TIP	RING_DIP	RING_PIP	RING_MCP	PINKY_TIP	PINKY_DIP	PINKY_PIP	PINKY_MCP	WRIST
X1	Y1	Z1	X2	Y2	Z2	X3	Y3	Z3	X4	Y4	Z4	X5	Y5	Z5	X6	Y6	Z6	X7	Y7	Z7	X8	Y8	Z8	X9	Y9	Z9	X10	Y10	Z10	X11	Y11	Z11	X12	Y12	Z12	X13	Y13	Z13	X14	Y14	Z14	X15	Y15	Z15	X16	Y16	Z16	X17	Y17	Z17	X18	Y18	Z18	X19	Y19	Z19	X20	Y20	Z20	X21	Y21	Z21
59	1.9999999999999911	0.4960923289165524	0.0005515465701690925	-0.16787241832580052	0.4932836515235163	-0.00752592788037465	-0.14654483670474783	0.4750310166199968	-0.01208888240958772	-0.12174885386390927	0.4735630488366682	-0.02211929093474152	-0.07830779062409396	0.5687874589078831	0.059449747120781105	-0.1528403431249841	0.5544529801350426	0.05247662477133774	-0.14424393207090574	0.5351571066145441	0.0420263788683517	-0.13197725123833975	0.5051418705075552	0.02157841662204396	-0.10973758992312889	0.5947343391072595	0.05898348576900547	-0.12359057941233222	0.5786725283174281	0.053602084825563834	-0.11718286858571246	0.5532743436993136	0.04421384909323345	-0.10640312842472678	0.5169859454123994	0.02467750650259226	-0.08915113175908278	0.6044910428270838	0.046772739420502196	-0.08974406917127235	0.5879475047434422	0.04074227548548681	-0.08587821190494947	0.5651395007334711	0.03215570350476693	-0.08075515483899078	0.5286668097178899	0.016410377184394642	-0.07323529159908146	0.6050272343117773	0.011790749588978522	-0.057669286807553705	0.5881560944517534	0.0089031950680164	-0.057505981229021674	0.5673425821829912	0.006186805509291737	-0.057025404696786436	0.5315088311731171	0.002134007629013168	-0.05765830982709458	0.4622830810018608	-0.023011742144276925	-0.051989820119430985
60	2.0333333333333243	0.4957916461934406	0.001975461056547445	-0.16767381035833714	0.49330607098345125	-0.006565987910801985	-0.14648736267559315	0.4753046793238692	-0.011649779572105223	-0.12160916015485632	0.4736606863437912	-0.022058931932853576	-0.07826360866208851	0.5687858222203699	0.05960075624195749	-0.15269706428686308	0.5544482409086524	0.05260529917424028	-0.14412400517452667	0.5351431691491513	0.04212871722688416	-0.1318943171956434	0.505122680681487	0.021607372420885396	-0.10972946272925563	0.5946564546686334	0.059306625022939374	-0.12339758157586597	0.5785969822541498	0.05387940277963721	-0.11702274004918903	0.5532060569594853	0.044412764022573104	-0.10629458954110868	0.5169540304513985	0.02471465308632126	-0.08915040916991318	0.6044321953893982	0.0469193364686995	-0.08969097608391832	0.587896468842364	0.040860417890947964	-0.08583620589233917	0.5650953072636444	0.03224683649041704	-0.0807280530835877	0.5286297107502225	0.01646772929317697	-0.07324467944743095	0.6049978978863593	0.011892777776506769	-0.05786234531313722	0.5881255561601526	0.0090158568768276	-0.05764460507548244	0.5673129513740177	0.00630246420200653	-0.057110750031122315	0.531483015530329	0.0022042134547499703	-0.05766164861503939	0.4622830810018608	-0.023011742144276925	-0.051989820119430985
61	2.0666666666666575	0.49567935848271394	0.0030639698459640208	-0.1674636840238557	0.4934062518047515	-0.00583027811675807	-0.14639889493855468	0.47556265936617526	-0.011324971935161465	-0.12149438633613532	0.47374492229552245	-0.022020446261315163	-0.07822554464976057	0.5688352972314636	0.05962355523594032	-0.1525975395115593	0.5544833697317929	0.05263324591295482	-0.14404430897490353	0.5351566716858448	0.0421703132587119	-0.13183711372318743	0.5051205459112971	0.021613922100507832	-0.10972598473784476	0.5946196879249424	0.059504388173951095	-0.12325088040651133	0.5785607017457203	0.05404952659528495	-0.11689844401933332	0.5531690154681984	0.04453947460305474	-0.10621056634932868	0.5169333195543964	0.024735872843826057	-0.08915361410092401	0.6044051326281206	0.046979461224796015	-0.08967131897062493	0.5878705926666135	0.04091249383588125	-0.08582412584274943	0.5650695630039422	0.03229530803283365	-0.0807214663246416	0.5286080103150753	0.01650055152513541	-0.07325141435832229	0.6049882645098433	0.011892106157873727	-0.058079916862768394	0.5881101670941354	0.00905487157360263	-0.05779720227224858	0.567295847711337	0.006369880685994311	-0.057191437000614354	0.5314670882572362	0.002250183855973975	-0.05765137722380109	0.4622830810018609	-0.023011742144276925	-0.051989820119430985
63	2.100000000000002	0.4957669193817177	0.003851590344549738	-0.1672447943036961	0.49355669278649494	-0.005278669469157116	-0.14627449973895576	0.4757516392417527	-0.011059310531272626	-0.12140716660530748	0.47379202685560573	-0.021991860530020002	-0.07820381870469972	0.5689177063310046	0.05949485755867001	-0.1525777539793852	0.5545454161477683	0.052542960650199366	-0.14402740870782785	0.5351867907422522	0.0421350796006027	-0.13182374255923324	0.5051137219043739	0.021607908870493464	-0.10973569406034642	0.5946365941960303	0.059537454061094786	-0.1231684809634569	0.578571818507122	0.054080785549855626	-0.11683225568151577	0.5531701785990976	0.04456917514897951	-0.1061694461284476	0.5169267622092806	0.024733947385733646	-0.08916572803579158	0.6044388534163998	0.04686378615743103	-0.08971838905113236	0.5878962375298635	0.040824677369772355	-0.08586209229370541	0.5650830810064867	0.032249196267840174	-0.08074340180586416	0.5286022142216488	0.01650378223463811	-0.07326348672947737	0.6050061825943593	0.011715711964292108	-0.05836528332866042	0.5881177697975313	0.008949940076922736	-0.058001939041553374	0.5672972006816226	0.006337047141090957	-0.05730286022228434	0.5314613925750143	0.002267416245879339	-0.05764405330997871	0.4622830810018609	-0.023011742144276925	-0.051989820119430985
64	2.1333333333333355	0.49594283890186974	0.004344563276492686	-0.16706487125887165	0.4937156968262355	-0.004927351200115115	-0.1461586176462942	0.47589091486305135	-0.010885534828600996	-0.12134738640287956	0.47382195320042286	-0.021978886625339644	-0.07819015127883153	0.5690071747486195	0.05929058525603792	-0.15261344806513366	0.5546116998047972	0.052396697168792694	-0.14405514167997063	0.5352196704258412	0.04206558484146272	-0.13183928527749939	0.5051106485855004	0.021593423985108773	-0.10974916242384698	0.5946792028517428	0.059478750025224736	-0.12312662753299097	0.5786050234645473	0.054039292117665894	-0.11679945954880103	0.5531880138886401	0.04455552780211525	-0.10614847890731402	0.5169265325682174	0.024722632057117222	-0.08918059336383309	0.604495245468977	0.04667542299447791	-0.0898023266342358	0.5879407805118491	0.04068174725282303	-0.0859260473502931	0.5651103369072528	0.032168863160428995	-0.08078001701159387	0.528604178094779	0.016493276994498207	-0.07327687093058707	0.6050349023973107	0.011469888775281434	-0.05867937464129816	0.5881345228166174	0.008791493645728732	-0.05822840950021521	0.5673068014441298	0.006266122262081675	-0.05742807156866159	0.5314621411735687	0.002266265764436781	-0.0576400363919482	0.4622830810018609	-0.023011742144276925	-0.051989820119430985
65	2.1666666666666687	0.49616510312108686	0.004533656950316378	-0.1669433261283476	0.49386397726299713	-0.004788385613380242	-0.14606739879024222	0.4759756802802243	-0.010813297108301367	-0.12131807006127487	0.4738363540157293	-0.02198300537471365	-0.07818396638011227	0.5690870425497103	0.05904317805257542	-0.15269955926731957	0.5546682520469267	0.052220376707149296	-0.14412355423947074	0.5352461080664264	0.04197764300391271	-0.13188114587815158	0.5051103385133527	0.021572227143434763	-0.10976575551295575	0.59473509756829	0.05936563206543599	-0.12311450219533798	0.5786497879652266	0.05395421695841718	-0.11679157553807534	0.5532155133077501	0.044514902044615834	-0.106142324080525	0.5169310363197518	0.02470365422004772	-0.08919832483769652	0.6045637520303535	0.0464467437785131	-0.08991011399544313	0.5879959729819173	0.040507597663420936	-0.0860068793335521	0.5651461594096265	0.032066966805779806	-0.08082790748224819	0.5286129435929834	0.01646974295319048	-0.07329321543898668	0.60507098085085	0.011175970805234026	-0.059017561507887784	0.5881580369102795	0.008595855328920488	-0.05847411749788886	0.5673232370925212	0.0061666931456131335	-0.057567306248988925	0.5314692947951019	0.002245918161214999	-0.05764343938927424	0.4622830810018609	-0.023011742144276925	-0.051989820119430985
66	2.200000000000002	0.4963907191502017	0.004408052103573423	-0.16689696629962694	0.49398136465582565	-0.004874541574816371	-0.14601567166729273	0.47600094663893255	-0.01085255350592218	-0.12132178697311499	0.4738368207886101	-0.022005731723067967	-0.07818464317614403	0.5691408121739289	0.05878522360175553	-0.1528311012832709	0.5547012191947741	0.0520400440280796	-0.14422873491608973	0.5352569341538436	0.04188712039767595	-0.13194672555270634	0.5051118040212649	0.021546080353535446	-0.1097848367971743	0.5947918523389352	0.059235490858408735	-0.12312128037726999	0.5786955628269173	0.05385475907965109	-0.11680011043252325	0.5532456351587992	0.04446367177314425	-0.10614561791109714	0.5169386750593175	0.024678744980822787	-0.08921903405146603	0.604634101147874	0.046210254751749336	-0.09002878850015854	0.588053773684192	0.04032619106133539	-0.08609552831499005	0.5651854610382933	0.03195618251720589	-0.08088369440545023	0.5286275414751364	0.01643388952139402	-0.07331416526778749	0.6051113689172091	0.010855333695081404	-0.05937522784749791	0.5881861900010372	0.008379358988002905	-0.05873658247995914	0.5673452062639086	0.006048351179395395	-0.05772079782514647	0.5314827966650381	0.0022055484090018895	-0.057658382837347394	0.462283081001861	-0.023011742144276925	-0.051989820119430985
67	2.233333333333335	0.4965755834398341	0.003956051626709867	-0.16694017322242155	0.49404680986030436	-0.005199035520365158	-0.14601674894452354	0.4759615855997613	-0.011013514721975426	-0.12136038069897868	0.47382488116470844	-0.02204863159043713	-0.07819151819535682	0.5691522190545699	0.058549455553130514	-0.15300319186802455	0.5546969036788995	0.05188184565642984	-0.14436682482769314	0.5352430295342383	0.041809915133731335	-0.13203342183786013	0.5051140572505326	0.021516750884756353	-0.10980576771305821	0.5948371585098023	0.059125808019271475	-0.12313617927582873	0.5787318753040047	0.053770181951291796	-0.11681659683068041	0.5532713530499689	0.04441822856929156	-0.10615299872813333	0.5169478472388233	0.024649641771513964	-0.08924282952122117	0.604696370184983	0.045998632477509016	-0.09014545362282378	0.5881063795538989	0.0401615874227248	-0.08618299026161046	0.5652232451850696	0.03184922560894532	-0.08094402265959885	0.5286469899833199	0.016386434697925	-0.07334135953023738	0.6051534716956496	0.010529381045756514	-0.05974778610087114	0.5882171581601813	0.008158328130976833	-0.059013353051758644	0.567371528630066	0.005920673944241006	-0.057888785475411625	0.5315025623360254	0.0021443278422726975	-0.057688990292453224	0.4622830810018608	-0.023011742144276925	-0.051989820119430985
